<svg width="51" height="92" viewBox="0 0 51 92" fill="none" xmlns="http://www.w3.org/2000/svg">
<rect x="30.5081" y="13.0981" width="5.39344" height="10.0164" fill="#FF7A00"/>
<path d="M33.2048 6.16382L38.9835 13.0982H27.4261L33.2048 6.16382Z" fill="#FF7A00"/>
<rect x="16.6394" y="6.93433" width="5.39344" height="10.0164" fill="#FF4D00"/>
<path d="M19.3361 0L25.1148 6.93443H13.5574L19.3361 0Z" fill="#FF4D00"/>
<path fill-rule="evenodd" clip-rule="evenodd" d="M1.45898 16.9509C0.9067 16.9509 0.458984 17.3986 0.458984 17.9509V35.2132C0.458984 35.7655 0.9067 36.2132 1.45898 36.2132H5.60156L5.60156 40.8363L16.3068 36.2132H31.0491C31.6014 36.2132 32.0491 35.7655 32.0491 35.2132V17.9509C32.0491 17.3986 31.6014 16.9509 31.0491 16.9509H1.45898Z" fill="#C4C4C4"/>
<circle cx="22.4181" cy="26.582" r="1.92623" fill="#989898"/>
<circle cx="16.2541" cy="26.582" r="1.92623" fill="#989898"/>
<circle cx="10.0902" cy="26.5822" r="1.92623" fill="#989898"/>
<path fill-rule="evenodd" clip-rule="evenodd" d="M49.541 23.1147C50.0933 23.1147 50.541 23.5625 50.541 24.1147V41.377C50.541 41.9293 50.0933 42.377 49.541 42.377H45.4107V47L34.7312 42.377H21.4918C20.9395 42.377 20.4918 41.9293 20.4918 41.377V24.1147C20.4918 23.5625 20.9395 23.1147 21.4918 23.1147H49.541Z" fill="#A5A5A5"/>
<circle cx="41.6803" cy="32.7458" r="1.92623" fill="#595959"/>
<circle cx="35.5163" cy="32.7458" r="1.92623" fill="#595959"/>
<circle cx="29.3524" cy="32.7461" r="1.92623" fill="#595959"/>
<path d="M28.5264 80.2773L24.8076 89H22.374L26.0996 80.8242H21.3555V79.0469H28.5264V80.2773ZM36.6338 80.2773L32.915 89H30.4814L34.207 80.8242H29.4629V79.0469H36.6338V80.2773ZM37.8301 80.9609C37.8301 80.3457 38.0306 79.849 38.4316 79.4707C38.8327 79.0924 39.3704 78.9033 40.0449 78.9033C40.7285 78.9033 41.2686 79.0924 41.665 79.4707C42.0615 79.8444 42.2598 80.3525 42.2598 80.9951V81.4873C42.2598 82.1025 42.0615 82.597 41.665 82.9707C41.2686 83.3444 40.7331 83.5312 40.0586 83.5312C39.3887 83.5312 38.8486 83.3467 38.4385 82.9775C38.0329 82.6038 37.8301 82.0934 37.8301 81.4463V80.9609ZM39.3135 81.4873C39.3135 81.7243 39.3796 81.918 39.5117 82.0684C39.6439 82.2142 39.8262 82.2871 40.0586 82.2871C40.5371 82.2871 40.7764 81.9818 40.7764 81.3711V80.9609C40.7764 80.724 40.7126 80.5303 40.585 80.3799C40.4574 80.2249 40.2773 80.1475 40.0449 80.1475C39.8216 80.1475 39.6439 80.2227 39.5117 80.373C39.3796 80.5189 39.3135 80.7194 39.3135 80.9746V81.4873ZM42.5605 86.5596C42.5605 85.9398 42.7611 85.443 43.1621 85.0693C43.5677 84.6956 44.1055 84.5088 44.7754 84.5088C45.4544 84.5088 45.9945 84.6934 46.3955 85.0625C46.7965 85.4316 46.9971 85.9466 46.9971 86.6074V87.0859C46.9971 87.7057 46.7988 88.2025 46.4023 88.5762C46.0059 88.9499 45.4681 89.1367 44.7891 89.1367C44.1191 89.1367 43.5791 88.9521 43.1689 88.583C42.7633 88.2093 42.5605 87.6989 42.5605 87.0518V86.5596ZM44.0371 87.0859C44.0371 87.3001 44.11 87.4893 44.2559 87.6533C44.4017 87.8128 44.5794 87.8926 44.7891 87.8926C45.2311 87.8926 45.4704 87.6829 45.5068 87.2637L45.5137 86.5596C45.5137 86.318 45.4476 86.1243 45.3154 85.9785C45.1833 85.8281 45.0033 85.7529 44.7754 85.7529C44.5566 85.7529 44.3812 85.8236 44.249 85.9648C44.1169 86.1016 44.0462 86.2884 44.0371 86.5254V87.0859ZM40.4961 88.2549L39.4229 87.7148L44.2832 79.9355L45.3564 80.4756L40.4961 88.2549Z" fill="black"/>
<line x1="3" y1="63.5" x2="49" y2="63.5" stroke="#FF4C00"/>
<path d="M15 79.5206L13.9041 80.4708L14.0091 81L13.0411 80.8122H12.9612L11.9932 81L12.0959 80.4708L11 79.5206L11.3425 79.3898L11.1621 78.4509L11.9361 78.6785L12.032 78.229L12.4452 78.8606L12.274 77.5946L12.5959 77.8193L13 77L13.4041 77.8193L13.726 77.5946L13.5548 78.8606L13.9703 78.229L14.0639 78.6785L14.8379 78.4509L14.6575 79.3898L15 79.5206Z" fill="#FF0000"/>
<path d="M13.9138 88.9439C13.5619 89.7357 12.4381 89.7357 12.0862 88.9439L9.62495 83.4061C9.33105 82.7449 9.8151 82 10.5388 82L15.4612 82C16.1849 82 16.669 82.7449 16.3751 83.4061L13.9138 88.9439Z" fill="#BCBCBC"/>
</svg>
